Coordinates
version=1
nRows=43
nColumns=12
inDegrees=yes

Units are S.I. units (second, meters, Newtons, ...)
Angles are in degrees

endheader
time	SC_y	SC_z	SC_x	AC_y	AC_z	AC_x	GH_y	GH_z	GH_yy	EL_x	PS_y
       0.0              -37.84          21.86          59.62          46.96         -10.89         -11.59          1.276          32.45          113.6          34.58          139.4
   0.02666              -37.84          21.86          59.62          46.96         -10.89         -11.58          1.255          32.46          113.6          34.57          139.4
   0.05332              -37.84          21.86          59.62          46.96         -10.89         -11.58          1.232          32.47          113.6          34.57          139.4
   0.07997              -37.83          21.86          59.62          46.96         -10.89         -11.58          1.208          32.48          113.5          34.57          139.4
    0.1066              -37.83          21.86          59.63          46.95         -10.89         -11.58          1.183          32.49          113.5          34.56          139.4
    0.1333              -37.83          21.86          59.63          46.95         -10.89         -11.58          1.156           32.5          113.4          34.56          139.4
    0.1599              -37.82          21.87          59.63          46.95         -10.89         -11.58          1.127          32.51          113.3          34.56          139.4
    0.1866              -37.82          21.87          59.63          46.94         -10.88         -11.58          1.096          32.52          113.3          34.55          139.4
    0.2133              -37.82          21.87          59.63          46.94         -10.88         -11.58          1.063          32.53          113.2          34.55          139.4
    0.2399              -37.81          21.87          59.63          46.94         -10.88         -11.57          1.028          32.55          113.1          34.55          139.4
    0.2666              -37.81          21.87          59.64          46.93         -10.88         -11.57         0.9899          32.56          113.1          34.54          139.4
    0.2932               -37.8          21.88          59.64          46.93         -10.88         -11.57          0.949          32.58          113.0          34.54          139.4
    0.3199               -37.8          21.88          59.64          46.92         -10.87         -11.57         0.9048           32.6          112.9          34.53          139.4
    0.3466              -37.79          21.88          59.64          46.92         -10.87         -11.57         0.8571          32.62          112.8          34.53          139.4
    0.3732              -37.79          21.89          59.65          46.91         -10.87         -11.56         0.8055          32.64          112.7          34.52          139.4
    0.3999              -37.78          21.89          59.65          46.91         -10.87         -11.56         0.7496          32.66          112.6          34.51          139.4
    0.4265              -37.77          21.89          59.65           46.9         -10.86         -11.56         0.6887          32.68          112.5          34.51          139.4
    0.4532              -37.77           21.9          59.66           46.9         -10.86         -11.56         0.6225          32.71          112.3           34.5          139.4
    0.4798              -37.76           21.9          59.66          46.89         -10.86         -11.55         0.5501          32.74          112.2          34.49          139.4
    0.5065              -37.75          21.91          59.66          46.88         -10.85         -11.55         0.4709          32.77          112.0          34.48          139.4
    0.5332              -37.74          21.91          59.67          46.87         -10.85         -11.54         0.3839           32.8          111.9          34.47          139.4
    0.5598              -37.73          21.92          59.67          46.86         -10.84         -11.54         0.2882          32.84          111.7          34.46          139.4
    0.5865              -37.72          21.92          59.68          46.85         -10.84         -11.54         0.1824          32.88          111.5          34.45          139.4
    0.6131              -37.71          21.93          59.69          46.84         -10.83         -11.53        0.06526          32.93          111.2          34.44          139.4
    0.6398              -37.69          21.94          59.69          46.83         -10.82         -11.52       -0.06499          32.98          111.0          34.42          139.4
    0.6665              -37.68          21.95           59.7          46.81         -10.82         -11.52        -0.2103          33.03          110.7           34.4          139.4
    0.6931              -37.66          21.96          59.71          46.79         -10.81         -11.51        -0.3731           33.1          110.3          34.39          139.4
    0.7198              -37.64          21.97          59.72          46.78          -10.8          -11.5        -0.5563          33.17          110.0          34.36          139.4
    0.7464              -37.61          21.98          59.73          46.75         -10.79         -11.49        -0.7632          33.25          109.6          34.34          139.4
    0.7731              -37.59           22.0          59.74          46.73         -10.78         -11.48        -0.9982          33.34          109.1          34.31          139.4
    0.7997              -37.56          22.01          59.76           46.7         -10.76         -11.47         -1.266          33.45          108.6          34.28          139.4
    0.8264              -37.52          22.03          59.78          46.67         -10.75         -11.46         -1.574          33.57          107.9          34.25          139.4
    0.8531              -37.49          22.05           59.8          46.63         -10.73         -11.44          -1.93          33.71          107.2          34.21          139.4
    0.8797              -37.44          22.08          59.82          46.59         -10.71         -11.42         -2.342          33.87          106.4          34.16          139.4
    0.9064              -37.39          22.11          59.84          46.54         -10.68          -11.4         -2.826          34.06          105.4           34.1          139.4
     0.933              -37.32          22.14          59.87          46.48         -10.65         -11.37         -3.395          34.28          104.3          34.04          139.4
    0.9597              -37.25          22.18          59.91          46.42         -10.62         -11.34         -4.072          34.55          103.0          33.96          139.4
    0.9863              -37.16          22.23          59.96          46.33         -10.57         -11.31         -4.883          34.86          101.3          33.86          139.4
     1.013              -37.05          22.29          60.01          46.23         -10.52         -11.26         -5.865          35.25          99.37          33.75          139.4
      1.04              -36.92          22.37          60.07          46.11         -10.46         -11.21         -7.064          35.72          96.97          33.61          139.4
     1.066              -36.75          22.46          60.15          45.96         -10.38         -11.14         -8.543           36.3          94.01          33.44          139.4
     1.093              -36.55          22.57          60.25          45.77         -10.29         -11.06         -10.39          37.02          90.32          33.23          139.4
      1.12              -36.29          22.72          60.38          45.53         -10.16         -10.95         -12.71          37.93          85.68          32.96          139.4
